<svg xmlns="http://www.w3.org/2000/svg" xmlns:xlink="http://www.w3.org/1999/xlink" width="512" zoomAndPan="magnify" viewBox="0 0 384 383.999986" height="512" preserveAspectRatio="xMidYMid meet" version="1.0"><path fill="#4e7896" d="M 158.25 203.640625 C 158.25 203.640625 148.121094 209.800781 165.292969 211.558594 C 185.988281 214.199219 196.996094 213.757812 219.890625 209.359375 C 219.890625 209.359375 226.054688 213.320312 234.421875 216.398438 C 182.90625 238.386719 117.738281 215.078125 158.25 203.640625 Z M 151.644531 175.054688 C 151.644531 175.054688 140.636719 183.410156 157.808594 185.171875 C 180.265625 187.371094 197.878906 187.808594 228.257812 181.652344 C 228.257812 181.652344 232.222656 186.050781 238.824219 188.25 C 176.742188 206.722656 107.167969 190.007812 151.644531 175.054688 Z M 273.171875 225.1875 C 273.171875 225.1875 280.65625 231.347656 264.804688 236.183594 C 235.304688 244.980469 141.082031 247.621094 114.660156 236.183594 C 105.414062 232.226562 123.023438 226.507812 128.75 225.628906 C 134.472656 224.308594 137.554688 224.308594 137.554688 224.308594 C 127.429688 217.273438 70.1875 238.824219 108.492188 244.980469 C 213.726562 262.132812 300.46875 237.503906 273.171875 225.1875 Z M 163.097656 145.140625 C 163.097656 145.140625 115.101562 156.578125 145.925781 160.535156 C 159.132812 162.292969 185.113281 161.855469 209.328125 160.09375 C 229.140625 158.335938 248.957031 154.816406 248.957031 154.816406 C 248.957031 154.816406 241.914062 157.894531 237.066406 160.972656 C 188.195312 173.726562 94.410156 168.011719 121.265625 154.816406 C 144.160156 143.820312 163.09375 145.140625 163.09375 145.140625 Z M 248.957031 193.082031 C 298.269531 167.570312 275.375 142.941406 259.523438 146.019531 C 255.558594 146.898438 253.800781 147.78125 253.800781 147.78125 C 253.800781 147.78125 255.121094 145.140625 258.203125 144.261719 C 289.464844 133.265625 314.121094 177.246094 248.074219 194.402344 C 248.074219 194.402344 248.515625 193.960938 248.957031 193.082031 Z M 167.9375 262.574219 C 215.492188 265.652344 288.132812 260.816406 289.90625 238.382812 C 289.90625 238.382812 286.386719 247.179688 250.71875 253.777344 C 210.210938 261.253906 160.015625 260.375 130.523438 255.535156 C 130.523438 255.535156 136.6875 260.816406 167.949219 262.574219 Z M 167.9375 262.574219 " fill-opacity="1" fill-rule="nonzero"/><path fill="#f58219" d="M 219.011719 0 C 219.011719 0 246.308594 27.707031 193.03125 69.492188 C 150.324219 103.359375 183.34375 122.710938 193.03125 144.703125 C 167.933594 122.269531 149.882812 102.476562 162.210938 84.007812 C 180.265625 56.738281 230.023438 43.550781 219.015625 0 Z M 204.929688 126.230469 C 217.699219 140.746094 201.40625 153.941406 201.40625 153.941406 C 201.40625 153.941406 233.988281 137.226562 219.019531 116.554688 C 205.371094 96.765625 194.800781 87.089844 252.042969 54.109375 C 252.042969 54.109375 161.78125 76.542969 204.929688 126.242188 Z M 172.339844 362.410156 L 172.339844 319.308594 C 172.339844 308.3125 166.175781 300.835938 150.765625 300.835938 C 141.957031 300.835938 134.472656 303.035156 127.871094 305.664062 L 130.070312 313.582031 C 134.90625 311.824219 141.078125 310.0625 147.683594 310.0625 C 156.050781 310.0625 160.011719 313.582031 160.011719 320.617188 L 160.011719 326.335938 L 155.609375 326.335938 C 134.476562 326.335938 124.789062 334.253906 124.789062 347.007812 C 124.789062 357.5625 131.390625 363.722656 143.28125 363.722656 C 150.765625 363.722656 156.492188 360.203125 161.773438 355.804688 L 162.65625 362.402344 L 172.34375 362.402344 Z M 160.011719 348.335938 C 155.609375 352.296875 150.765625 354.496094 146.359375 354.496094 C 140.636719 354.496094 137.117188 350.976562 137.117188 344.816406 C 137.117188 338.660156 140.636719 334.261719 154.726562 334.261719 L 160.011719 334.261719 Z M 213.730469 362.410156 L 198.320312 362.410156 L 179.828125 302.152344 L 193.039062 302.152344 L 204.484375 339.097656 L 207.125 350.09375 C 212.851562 334.261719 217.253906 317.988281 219.015625 302.152344 L 232.222656 302.152344 C 228.703125 321.949219 222.539062 343.496094 213.734375 362.410156 Z M 285.058594 362.410156 L 285.058594 319.308594 C 285.058594 308.3125 278.894531 300.835938 263.484375 300.835938 C 254.675781 300.835938 247.191406 303.035156 240.585938 305.664062 L 242.347656 313.582031 C 247.632812 311.824219 253.796875 310.0625 260.402344 310.0625 C 268.769531 310.0625 272.730469 313.582031 272.730469 320.617188 L 272.730469 326.335938 L 268.328125 326.335938 C 247.195312 326.335938 237.507812 334.253906 237.507812 347.007812 C 237.507812 357.5625 243.671875 363.722656 255.558594 363.722656 C 263.484375 363.722656 269.207031 360.203125 274.492188 355.804688 L 275.371094 362.402344 L 285.058594 362.402344 Z M 272.730469 348.335938 C 268.328125 352.296875 263.484375 354.496094 259.082031 354.496094 C 253.355469 354.496094 249.835938 350.976562 249.835938 344.816406 C 249.835938 338.660156 253.359375 334.261719 267.445312 334.261719 L 272.730469 334.261719 Z M 111.140625 372.527344 C 107.617188 377.804688 102.335938 381.761719 95.730469 383.960938 L 90.003906 376.929688 C 94.40625 374.292969 98.808594 370.332031 100.570312 366.8125 C 102.332031 363.734375 102.773438 359.335938 102.773438 349.21875 L 102.773438 280.609375 L 115.980469 280.609375 L 115.980469 348.34375 C 115.980469 361.976562 114.660156 367.253906 111.144531 372.53125 Z M 111.140625 372.527344 " fill-opacity="1" fill-rule="nonzero"/></svg>