<svg xmlns="http://www.w3.org/2000/svg" xmlns:xlink="http://www.w3.org/1999/xlink" width="512" zoomAndPan="magnify" viewBox="0 0 384 383.999986" height="512" preserveAspectRatio="xMidYMid meet" version="1.0"><rect x="-38.4" width="460.8" fill="#007acc" y="-38.399999" height="460.799983" fill-opacity="1"/><path fill="#ffffff" d="M 84.898438 193.261719 L 84.78125 208.996094 L 134.761719 208.996094 L 134.761719 351.015625 L 170.113281 351.015625 L 170.113281 208.996094 L 220.09375 208.996094 L 220.09375 193.574219 C 220.09375 185.039062 219.910156 177.898438 219.667969 177.71875 C 219.484375 177.480469 189.070312 177.359375 152.191406 177.421875 L 85.078125 177.601562 Z M 84.898438 193.261719 " fill-opacity="1" fill-rule="nonzero"/><path fill="#ffffff" d="M 309.855469 177.164062 C 319.605469 179.59375 327.046875 183.929688 333.871094 190.996094 C 337.394531 194.773438 342.644531 201.660156 343.066406 203.308594 C 343.183594 203.804688 326.488281 215.011719 316.363281 221.296875 C 316.003906 221.535156 314.550781 219.945312 312.898438 217.515625 C 307.964844 210.316406 302.773438 207.210938 294.855469 206.671875 C 283.214844 205.875 275.714844 211.964844 275.773438 222.148438 C 275.773438 225.136719 276.210938 226.90625 277.425781 229.335938 C 279.988281 234.644531 284.746094 237.808594 299.671875 244.273438 C 327.164062 256.09375 338.925781 263.894531 346.246094 274.996094 C 354.40625 287.371094 356.234375 307.109375 350.683594 321.796875 C 344.59375 337.769531 329.476562 348.613281 308.203125 352.214844 C 301.621094 353.371094 286.019531 353.191406 278.941406 351.914062 C 263.519531 349.171875 248.894531 341.550781 239.878906 331.558594 C 236.339844 327.660156 229.453125 317.476562 229.875 316.738281 C 230.070312 316.5 231.644531 315.523438 233.414062 314.488281 C 235.125 313.515625 241.589844 309.796875 247.679688 306.253906 L 258.703125 299.863281 L 261.03125 303.269531 C 264.253906 308.203125 271.335938 314.96875 275.59375 317.234375 C 287.851562 323.683594 304.664062 322.769531 312.960938 315.34375 C 316.5 312.105469 317.953125 308.761719 317.953125 303.824219 C 317.953125 299.371094 317.414062 297.421875 315.089844 294.074219 C 312.105469 289.800781 306.015625 286.199219 288.703125 278.714844 C 268.890625 270.179688 260.355469 264.871094 252.554688 256.453125 C 248.039062 251.578125 243.78125 243.78125 242.011719 237.253906 C 240.539062 231.839844 240.179688 218.25 241.335938 212.761719 C 245.429688 193.621094 259.875 180.269531 280.710938 176.308594 C 287.476562 175.035156 303.210938 175.515625 309.855469 177.164062 Z M 309.855469 177.164062 " fill-opacity="1" fill-rule="nonzero"/></svg>