<svg xmlns="http://www.w3.org/2000/svg" xmlns:xlink="http://www.w3.org/1999/xlink" width="512" zoomAndPan="magnify" viewBox="0 0 384 383.999986" height="512" preserveAspectRatio="xMidYMid meet" version="1.0"><path fill="#599636" d="M 191.335938 1.042969 L 201.574219 20.292969 C 203.878906 23.84375 206.371094 26.988281 209.308594 29.914062 C 217.882812 38.496094 226.027344 47.484375 233.339844 57.109375 C 250.691406 79.90625 262.394531 105.226562 270.753906 132.613281 C 275.765625 149.339844 278.488281 166.5 278.691406 183.851562 C 279.53125 235.726562 261.761719 280.273438 225.929688 317.292969 C 220.078125 323.148438 213.820312 328.570312 207.105469 333.394531 C 203.554688 333.394531 201.875 330.671875 200.414062 328.164062 C 197.691406 323.566406 196.023438 318.324219 195.183594 313.105469 C 193.925781 306.828125 193.097656 300.550781 193.503906 294.070312 L 193.503906 291.144531 C 193.21875 290.519531 190.085938 2.519531 191.335938 1.042969 Z M 191.335938 1.042969 " fill-opacity="1" fill-rule="nonzero"/><path fill="#6cac48" d="M 191.335938 0.40625 C 190.914062 -0.433594 190.496094 0.203125 190.074219 0.613281 C 190.28125 4.8125 188.816406 8.554688 186.527344 12.132812 C 184.007812 15.683594 180.675781 18.40625 177.328125 21.335938 C 158.742188 37.441406 144.113281 56.890625 132.398438 78.648438 C 116.808594 107.929688 108.773438 139.308594 106.496094 172.34375 C 105.453125 184.261719 110.261719 226.308594 114.015625 238.441406 C 124.253906 270.648438 142.648438 297.636719 166.476562 321.058594 C 172.328125 326.699219 178.589844 331.933594 185.0625 336.960938 C 186.945312 336.960938 187.148438 335.28125 187.582031 334.03125 C 188.40625 331.359375 189.035156 328.636719 189.464844 325.871094 L 193.660156 294.503906 Z M 191.335938 0.40625 " fill-opacity="1" fill-rule="nonzero"/><path fill="#c2bfbf" d="M 201.574219 346.140625 C 201.996094 341.339844 204.296875 337.355469 206.804688 333.382812 C 204.285156 332.339844 202.414062 330.265625 200.953125 327.949219 C 199.691406 325.859375 198.648438 323.351562 197.835938 321.046875 C 194.910156 312.265625 194.285156 303.046875 193.445312 294.070312 L 193.445312 288.636719 C 192.402344 289.476562 192.1875 296.578125 192.1875 297.636719 C 191.574219 307.132812 190.320312 316.546875 188.421875 325.871094 C 187.796875 329.640625 187.378906 333.394531 185.0625 336.742188 C 185.0625 337.164062 185.0625 337.585938 185.265625 338.207031 C 189.03125 349.296875 190.0625 360.589844 190.699219 372.097656 L 190.699219 376.296875 C 190.699219 381.3125 190.496094 380.257812 194.65625 381.9375 C 196.335938 382.558594 198.207031 382.777344 199.886719 384.023438 C 201.144531 384.023438 201.347656 382.980469 201.347656 382.140625 L 200.722656 375.238281 L 200.722656 355.992188 C 200.519531 352.632812 201.144531 349.296875 201.5625 346.152344 Z M 201.574219 346.140625 " fill-opacity="1" fill-rule="nonzero"/></svg>