<svg xmlns="http://www.w3.org/2000/svg" xmlns:xlink="http://www.w3.org/1999/xlink" width="512" zoomAndPan="magnify" viewBox="0 0 384 383.999986" height="512" preserveAspectRatio="xMidYMid meet" version="1.0"><path fill="#8cc84b" d="M 176.085938 5.109375 C 185.664062 -0.3125 197.878906 -0.335938 207.21875 5.109375 L 350.25 85.652344 C 359.195312 90.675781 365.183594 100.640625 365.097656 110.941406 L 365.097656 272.4375 C 365.160156 283.167969 358.585938 293.347656 349.148438 298.277344 L 206.882812 378.449219 C 205.671875 379.117188 204.421875 379.703125 203.132812 380.207031 C 201.84375 380.707031 200.527344 381.121094 199.183594 381.449219 C 197.839844 381.773438 196.476562 382.011719 195.101562 382.15625 C 193.726562 382.300781 192.347656 382.355469 190.964844 382.316406 C 189.582031 382.28125 188.207031 382.148438 186.839844 381.929688 C 185.472656 381.707031 184.128906 381.394531 182.804688 380.996094 C 181.480469 380.59375 180.1875 380.109375 178.929688 379.535156 C 177.667969 378.964844 176.453125 378.308594 175.28125 377.574219 L 132.589844 352.933594 C 129.679688 351.199219 126.410156 349.824219 124.351562 347.011719 C 126.171875 344.570312 129.40625 344.261719 132.039062 343.183594 C 137.980469 341.292969 143.417969 338.398438 148.875 335.335938 C 150.253906 334.378906 151.941406 334.738281 153.257812 335.597656 L 189.664062 356.628906 C 192.261719 358.125 194.898438 356.152344 197.125 354.894531 L 336.8125 276.144531 C 338.539062 275.308594 339.496094 273.488281 339.351562 271.597656 L 339.351562 111.660156 C 339.542969 109.503906 338.3125 107.542969 336.359375 106.671875 L 194.453125 26.84375 C 194.046875 26.5625 193.601562 26.347656 193.128906 26.199219 C 192.65625 26.050781 192.167969 25.972656 191.671875 25.972656 C 191.175781 25.972656 190.6875 26.042969 190.214844 26.191406 C 189.738281 26.335938 189.296875 26.550781 188.886719 26.832031 L 47.183594 106.824219 C 45.269531 107.699219 43.949219 109.636719 44.191406 111.789062 L 44.191406 271.730469 C 44.023438 273.621094 45.027344 275.402344 46.765625 276.21875 L 84.628906 297.570312 C 91.742188 301.398438 100.472656 303.550781 108.304688 300.738281 C 109.15625 300.417969 109.980469 300.035156 110.773438 299.589844 C 111.566406 299.144531 112.320312 298.640625 113.039062 298.082031 C 113.757812 297.519531 114.425781 296.910156 115.050781 296.246094 C 115.675781 295.585938 116.246094 294.878906 116.761719 294.132812 C 117.277344 293.382812 117.734375 292.597656 118.132812 291.78125 C 118.527344 290.960938 118.863281 290.121094 119.132812 289.25 C 119.398438 288.382812 119.601562 287.496094 119.734375 286.597656 C 119.871094 285.699219 119.9375 284.792969 119.933594 283.886719 L 119.96875 124.902344 C 119.800781 122.546875 122.027344 120.59375 124.316406 120.835938 L 142.519531 120.835938 C 144.914062 120.773438 146.792969 123.3125 146.46875 125.679688 L 146.433594 285.667969 C 146.445312 299.878906 140.601562 315.335938 127.441406 322.308594 C 111.226562 330.683594 91.179688 328.925781 75.15625 320.875 L 34.441406 298.382812 C 24.863281 293.597656 18.433594 283.261719 18.492188 272.542969 L 18.492188 111.050781 C 18.5 109.742188 18.597656 108.441406 18.78125 107.148438 C 18.964844 105.855469 19.234375 104.578125 19.585938 103.320312 C 19.941406 102.0625 20.375 100.835938 20.890625 99.636719 C 21.410156 98.433594 22.003906 97.273438 22.675781 96.152344 C 23.347656 95.03125 24.089844 93.960938 24.90625 92.941406 C 25.71875 91.917969 26.597656 90.953125 27.542969 90.050781 C 28.484375 89.144531 29.484375 88.304688 30.539062 87.535156 C 31.59375 86.761719 32.695312 86.0625 33.84375 85.4375 Z M 217.328125 117.054688 C 238.007812 115.859375 260.148438 116.265625 278.757812 126.445312 C 293.164062 134.246094 301.152344 150.609375 301.414062 166.617188 C 301.007812 168.769531 298.757812 169.964844 296.695312 169.808594 C 290.710938 169.796875 284.699219 169.894531 278.6875 169.773438 C 276.136719 169.871094 274.664062 167.523438 274.339844 165.277344 C 272.617188 157.621094 268.4375 150.046875 261.226562 146.351562 C 250.160156 140.8125 237.324219 141.085938 225.253906 141.207031 C 216.441406 141.683594 206.96875 142.4375 199.507812 147.605469 C 193.757812 151.53125 192.035156 159.570312 194.082031 165.8125 C 196 170.394531 201.304688 171.867188 205.625 173.230469 C 230.558594 179.738281 256.964844 179.210938 281.429688 187.667969 C 291.546875 191.164062 301.453125 197.957031 304.925781 208.542969 C 309.449219 222.730469 307.476562 239.695312 297.378906 251.082031 C 289.1875 260.460938 277.261719 265.4375 265.347656 268.332031 C 249.503906 271.863281 233.074219 271.945312 216.992188 270.367188 C 201.867188 268.644531 186.132812 264.671875 174.457031 254.386719 C 164.46875 245.722656 159.605469 232.230469 160.085938 219.214844 C 160.207031 217.015625 162.398438 215.484375 164.515625 215.660156 L 182.480469 215.660156 C 184.898438 215.496094 186.671875 217.574219 186.789062 219.847656 C 187.902344 227.027344 190.644531 234.800781 197.015625 238.988281 C 209.304688 246.910156 224.714844 246.359375 238.773438 246.585938 C 250.425781 246.070312 263.503906 245.914062 273.023438 238.210938 C 278.050781 233.820312 279.523438 226.488281 278.171875 220.171875 C 276.699219 214.835938 270.988281 212.359375 266.195312 210.601562 C 241.585938 202.824219 214.882812 205.648438 190.515625 196.84375 C 180.621094 193.351562 171.054688 186.75 167.257812 176.59375 C 161.953125 162.238281 164.382812 144.449219 175.558594 133.441406 C 186.335938 122.496094 202.140625 118.273438 217.109375 116.765625 Z M 217.328125 117.054688 " fill-opacity="1" fill-rule="nonzero"/></svg>