<svg xmlns="http://www.w3.org/2000/svg" xmlns:xlink="http://www.w3.org/1999/xlink" width="512" zoomAndPan="magnify" viewBox="0 0 384 383.999986" height="512" preserveAspectRatio="xMidYMid meet" version="1.0"><defs><clipPath id="9da4b211e7"><path d="M 1.125 1.125 L 381.375 1.125 L 381.375 381.375 L 1.125 381.375 Z M 1.125 1.125 " clip-rule="nonzero"/></clipPath></defs><g clip-path="url(#9da4b211e7)"><path fill="#f03c2e" d="M 374.195312 174.316406 L 208.183594 8.300781 C 207.613281 7.734375 207.023438 7.195312 206.402344 6.6875 C 205.78125 6.179688 205.140625 5.699219 204.472656 5.253906 C 203.804688 4.808594 203.117188 4.398438 202.410156 4.019531 C 201.703125 3.640625 200.980469 3.296875 200.238281 2.992188 C 199.5 2.683594 198.742188 2.414062 197.976562 2.183594 C 197.210938 1.949219 196.433594 1.753906 195.644531 1.597656 C 194.859375 1.441406 194.066406 1.324219 193.269531 1.246094 C 192.472656 1.167969 191.671875 1.128906 190.867188 1.128906 C 190.066406 1.128906 189.265625 1.167969 188.46875 1.246094 C 187.671875 1.324219 186.878906 1.441406 186.089844 1.597656 C 185.304688 1.753906 184.527344 1.949219 183.761719 2.183594 C 182.992188 2.414062 182.238281 2.683594 181.5 2.992188 C 180.757812 3.296875 180.035156 3.640625 179.328125 4.019531 C 178.617188 4.398438 177.933594 4.808594 177.265625 5.253906 C 176.597656 5.699219 175.957031 6.179688 175.335938 6.6875 C 174.714844 7.195312 174.121094 7.734375 173.554688 8.300781 L 139.09375 42.761719 L 182.824219 86.488281 C 192.996094 82.925781 204.640625 85.359375 212.746094 93.464844 C 213.703125 94.425781 214.59375 95.449219 215.410156 96.535156 C 216.226562 97.621094 216.960938 98.757812 217.621094 99.949219 C 218.277344 101.136719 218.847656 102.367188 219.332031 103.632812 C 219.820312 104.902344 220.210938 106.199219 220.515625 107.523438 C 220.820312 108.847656 221.03125 110.1875 221.148438 111.539062 C 221.261719 112.894531 221.285156 114.25 221.210938 115.605469 C 221.136719 116.960938 220.96875 118.304688 220.707031 119.640625 C 220.445312 120.972656 220.09375 122.28125 219.648438 123.5625 L 261.796875 165.710938 C 271.992188 162.195312 283.757812 164.464844 291.894531 172.628906 C 292.570312 173.304688 293.210938 174.011719 293.816406 174.746094 C 294.425781 175.484375 294.992188 176.25 295.523438 177.046875 C 296.054688 177.839844 296.542969 178.65625 296.996094 179.5 C 297.445312 180.339844 297.851562 181.203125 298.21875 182.085938 C 298.585938 182.964844 298.90625 183.863281 299.183594 184.777344 C 299.460938 185.691406 299.691406 186.617188 299.878906 187.554688 C 300.066406 188.488281 300.207031 189.433594 300.296875 190.382812 C 300.390625 191.332031 300.4375 192.285156 300.441406 193.242188 C 300.441406 194.195312 300.394531 195.148438 300.300781 196.097656 C 300.207031 197.046875 300.066406 197.992188 299.878906 198.929688 C 299.695312 199.863281 299.460938 200.789062 299.183594 201.703125 C 298.90625 202.617188 298.585938 203.515625 298.222656 204.398438 C 297.855469 205.277344 297.449219 206.140625 296.996094 206.984375 C 296.546875 207.824219 296.058594 208.644531 295.527344 209.4375 C 294.996094 210.230469 294.429688 210.996094 293.820312 211.734375 C 293.214844 212.472656 292.574219 213.179688 291.902344 213.855469 C 291.226562 214.527344 290.519531 215.167969 289.78125 215.773438 C 289.042969 216.378906 288.277344 216.949219 287.480469 217.480469 C 286.6875 218.007812 285.871094 218.5 285.027344 218.949219 C 284.1875 219.398438 283.324219 219.804688 282.441406 220.171875 C 281.558594 220.535156 280.660156 220.859375 279.746094 221.136719 C 278.832031 221.410156 277.910156 221.644531 276.972656 221.828125 C 276.035156 222.015625 275.09375 222.15625 274.140625 222.246094 C 273.191406 222.339844 272.238281 222.386719 271.285156 222.386719 C 270.328125 222.386719 269.378906 222.339844 268.425781 222.246094 C 267.476562 222.152344 266.535156 222.011719 265.597656 221.824219 C 264.660156 221.636719 263.734375 221.40625 262.824219 221.128906 C 261.910156 220.851562 261.011719 220.527344 260.128906 220.164062 C 259.246094 219.796875 258.386719 219.390625 257.542969 218.9375 C 256.703125 218.488281 255.882812 217.996094 255.089844 217.464844 C 254.296875 216.933594 253.53125 216.367188 252.792969 215.761719 C 252.054688 215.15625 251.351562 214.515625 250.675781 213.839844 C 242.121094 205.28125 240.003906 192.6875 244.328125 182.148438 L 205.019531 142.839844 L 205.019531 246.277344 C 207.894531 247.699219 210.46875 249.539062 212.746094 251.792969 C 213.417969 252.464844 214.058594 253.171875 214.664062 253.910156 C 215.269531 254.648438 215.839844 255.414062 216.367188 256.207031 C 216.898438 257 217.390625 257.820312 217.839844 258.660156 C 218.289062 259.503906 218.695312 260.363281 219.0625 261.246094 C 219.425781 262.128906 219.746094 263.023438 220.023438 263.9375 C 220.300781 264.851562 220.535156 265.777344 220.71875 266.710938 C 220.90625 267.648438 221.046875 268.589844 221.140625 269.539062 C 221.234375 270.488281 221.28125 271.441406 221.28125 272.398438 C 221.28125 273.351562 221.234375 274.304688 221.140625 275.253906 C 221.046875 276.203125 220.90625 277.144531 220.71875 278.082031 C 220.535156 279.015625 220.300781 279.941406 220.023438 280.855469 C 219.746094 281.769531 219.425781 282.667969 219.0625 283.546875 C 218.695312 284.429688 218.289062 285.292969 217.839844 286.132812 C 217.390625 286.976562 216.898438 287.792969 216.367188 288.585938 C 215.839844 289.378906 215.269531 290.144531 214.664062 290.882812 C 214.058594 291.621094 213.417969 292.328125 212.746094 293 C 212.070312 293.675781 211.363281 294.316406 210.625 294.921875 C 209.886719 295.527344 209.121094 296.09375 208.328125 296.625 C 207.535156 297.15625 206.71875 297.644531 205.875 298.09375 C 205.035156 298.546875 204.171875 298.953125 203.292969 299.316406 C 202.410156 299.683594 201.511719 300.003906 200.597656 300.28125 C 199.6875 300.558594 198.761719 300.789062 197.824219 300.976562 C 196.890625 301.164062 195.945312 301.300781 194.996094 301.394531 C 194.046875 301.488281 193.09375 301.535156 192.140625 301.535156 C 191.1875 301.535156 190.234375 301.488281 189.285156 301.394531 C 188.335938 301.300781 187.390625 301.164062 186.457031 300.976562 C 185.519531 300.789062 184.59375 300.558594 183.679688 300.28125 C 182.769531 300.003906 181.871094 299.683594 180.988281 299.316406 C 180.105469 298.953125 179.246094 298.546875 178.402344 298.09375 C 177.5625 297.644531 176.746094 297.15625 175.949219 296.625 C 175.15625 296.09375 174.390625 295.527344 173.652344 294.921875 C 172.917969 294.316406 172.210938 293.675781 171.535156 293 C 170.859375 292.328125 170.21875 291.621094 169.613281 290.882812 C 169.007812 290.144531 168.4375 289.382812 167.90625 288.585938 C 167.375 287.792969 166.886719 286.976562 166.433594 286.136719 C 165.984375 285.292969 165.578125 284.433594 165.210938 283.550781 C 164.84375 282.667969 164.523438 281.769531 164.246094 280.855469 C 163.96875 279.945312 163.738281 279.019531 163.550781 278.082031 C 163.363281 277.148438 163.222656 276.203125 163.128906 275.253906 C 163.035156 274.304688 162.988281 273.351562 162.988281 272.398438 C 162.988281 271.441406 163.035156 270.488281 163.128906 269.539062 C 163.222656 268.589844 163.363281 267.648438 163.550781 266.710938 C 163.738281 265.773438 163.96875 264.847656 164.246094 263.9375 C 164.523438 263.023438 164.84375 262.125 165.210938 261.242188 C 165.578125 260.363281 165.984375 259.5 166.433594 258.660156 C 166.886719 257.816406 167.375 257 167.90625 256.207031 C 168.4375 255.414062 169.007812 254.648438 169.613281 253.910156 C 170.21875 253.171875 170.859375 252.464844 171.535156 251.792969 C 174.351562 248.988281 177.476562 246.859375 181.078125 245.433594 L 181.078125 141.03125 C 177.609375 139.605469 174.351562 137.503906 171.535156 134.675781 C 170.519531 133.660156 169.582031 132.574219 168.726562 131.417969 C 167.867188 130.265625 167.101562 129.050781 166.425781 127.785156 C 165.746094 126.515625 165.167969 125.203125 164.683594 123.847656 C 164.203125 122.496094 163.824219 121.113281 163.542969 119.703125 C 163.265625 118.292969 163.09375 116.867188 163.027344 115.429688 C 162.960938 113.996094 163 112.5625 163.144531 111.132812 C 163.289062 109.703125 163.539062 108.289062 163.894531 106.894531 C 164.25 105.503906 164.707031 104.144531 165.261719 102.816406 L 122.125 59.707031 L 8.289062 173.425781 C 7.722656 173.992188 7.183594 174.585938 6.675781 175.207031 C 6.164062 175.824219 5.6875 176.46875 5.242188 177.136719 C 4.792969 177.800781 4.382812 178.488281 4.003906 179.195312 C 3.625 179.902344 3.28125 180.628906 2.976562 181.371094 C 2.667969 182.109375 2.398438 182.867188 2.164062 183.632812 C 1.933594 184.402344 1.738281 185.179688 1.582031 185.964844 C 1.425781 186.75 1.304688 187.542969 1.226562 188.34375 C 1.148438 189.140625 1.109375 189.941406 1.109375 190.742188 C 1.109375 191.546875 1.148438 192.347656 1.226562 193.144531 C 1.304688 193.945312 1.425781 194.734375 1.582031 195.523438 C 1.738281 196.308594 1.933594 197.085938 2.164062 197.855469 C 2.398438 198.621094 2.667969 199.378906 2.976562 200.117188 C 3.28125 200.859375 3.625 201.582031 4.003906 202.292969 C 4.382812 203 4.792969 203.6875 5.242188 204.351562 C 5.6875 205.019531 6.164062 205.664062 6.675781 206.28125 C 7.183594 206.902344 7.722656 207.496094 8.289062 208.0625 L 174.316406 374.066406 C 174.882812 374.632812 175.476562 375.171875 176.097656 375.679688 C 176.714844 376.1875 177.359375 376.667969 178.027344 377.113281 C 178.691406 377.558594 179.378906 377.96875 180.085938 378.347656 C 180.792969 378.726562 181.519531 379.070312 182.257812 379.375 C 183 379.683594 183.753906 379.953125 184.519531 380.183594 C 185.289062 380.417969 186.066406 380.613281 186.851562 380.769531 C 187.640625 380.925781 188.429688 381.042969 189.230469 381.121094 C 190.027344 381.199219 190.828125 381.238281 191.628906 381.238281 C 192.429688 381.238281 193.230469 381.199219 194.027344 381.121094 C 194.828125 381.042969 195.621094 380.925781 196.40625 380.769531 C 197.191406 380.613281 197.96875 380.417969 198.738281 380.183594 C 199.503906 379.953125 200.257812 379.683594 201 379.375 C 201.742188 379.070312 202.464844 378.726562 203.171875 378.347656 C 203.878906 377.96875 204.566406 377.558594 205.234375 377.113281 C 205.898438 376.667969 206.542969 376.1875 207.164062 375.679688 C 207.78125 375.171875 208.375 374.632812 208.941406 374.066406 L 374.195312 209.074219 C 374.765625 208.507812 375.304688 207.914062 375.8125 207.292969 C 376.320312 206.671875 376.800781 206.03125 377.246094 205.363281 C 377.691406 204.695312 378.101562 204.007812 378.480469 203.300781 C 378.859375 202.59375 379.203125 201.871094 379.511719 201.128906 C 379.816406 200.386719 380.085938 199.632812 380.320312 198.863281 C 380.554688 198.097656 380.75 197.320312 380.90625 196.53125 C 381.0625 195.746094 381.179688 194.953125 381.257812 194.15625 C 381.335938 193.355469 381.375 192.554688 381.375 191.753906 C 381.375 190.953125 381.335938 190.152344 381.257812 189.351562 C 381.179688 188.554688 381.0625 187.761719 380.90625 186.976562 C 380.75 186.1875 380.554688 185.410156 380.320312 184.644531 C 380.085938 183.875 379.816406 183.121094 379.511719 182.378906 C 379.203125 181.636719 378.859375 180.914062 378.480469 180.207031 C 378.101562 179.5 377.691406 178.8125 377.246094 178.144531 C 376.800781 177.476562 376.320312 176.835938 375.8125 176.214844 C 375.304688 175.59375 374.765625 175 374.195312 174.433594 " fill-opacity="1" fill-rule="nonzero"/></g></svg>