<svg xmlns="http://www.w3.org/2000/svg" xmlns:xlink="http://www.w3.org/1999/xlink" width="512" zoomAndPan="magnify" viewBox="0 0 384 383.999986" height="512" preserveAspectRatio="xMidYMid meet" version="1.0"><defs><clipPath id="374ee6480f"><path d="M 281 85 L 381.542969 85 L 381.542969 328 L 281 328 Z M 281 85 " clip-rule="nonzero"/></clipPath></defs><path fill="#00c4b3" d="M 108.027344 107.296875 L 83.539062 82.816406 L 83.632812 259.625 L 83.929688 267.878906 C 84.046875 271.78125 84.785156 276.15625 85.96875 280.707031 L 279.929688 349.058594 L 328.457031 327.59375 L 328.5 327.523438 L 108.015625 107.296875 Z M 108.027344 107.296875 " fill-opacity="1" fill-rule="nonzero"/><path fill="#22d3c5" d="M 85.976562 280.707031 L 85.992188 280.707031 C 85.976562 280.636719 85.945312 280.554688 85.910156 280.472656 C 85.953125 280.558594 85.953125 280.648438 85.96875 280.707031 Z M 328.410156 327.59375 L 279.882812 349.058594 L 85.953125 280.707031 C 89.652344 294.921875 97.859375 310.898438 106.675781 319.613281 L 169.941406 382.503906 L 310.714844 382.683594 L 328.351562 327.59375 Z M 328.410156 327.59375 " fill-opacity="1" fill-rule="nonzero"/><path fill="#0075c9" d="M 84.199219 82.824219 L 8.789062 196.613281 C 2.527344 203.292969 5.652344 217.082031 15.730469 227.238281 L 59.261719 271.085938 L 86.625 280.726562 C 85.441406 276.183594 84.699219 271.855469 84.585938 267.894531 L 84.289062 259.640625 L 84.199219 82.835938 Z M 84.199219 82.824219 " fill-opacity="1" fill-rule="nonzero"/><path fill="#0075c9" d="M 281.527344 85.097656 C 276.972656 83.945312 272.605469 83.21875 268.667969 83.105469 L 259.921875 82.789062 L 83.539062 82.828125 L 328.492188 327.53125 L 350.011719 279.046875 L 281.539062 85.109375 Z M 281.527344 85.097656 " fill-opacity="1" fill-rule="nonzero"/><g clip-path="url(#374ee6480f)"><path fill="#00a8e1" d="M 281.304688 85.058594 C 281.382812 85.085938 281.464844 85.105469 281.527344 85.117188 L 281.527344 85.09375 C 281.453125 85.074219 281.382812 85.074219 281.304688 85.046875 Z M 320.453125 105.859375 C 311.546875 96.902344 295.773438 88.710938 281.527344 85.117188 L 350 279.035156 L 328.457031 327.519531 L 381.023438 310.738281 L 381.140625 166.753906 L 320.445312 105.851562 Z M 320.453125 105.859375 " fill-opacity="1" fill-rule="nonzero"/></g><path fill="#00c4b3" d="M 271.929688 57.929688 L 228.136719 14.414062 C 217.921875 4.378906 204.121094 1.246094 197.492188 7.488281 L 83.609375 82.816406 L 259.992188 82.777344 L 268.742188 83.09375 C 272.675781 83.214844 277.050781 83.933594 281.601562 85.085938 L 271.941406 57.917969 Z M 271.929688 57.929688 " fill-opacity="1" fill-rule="nonzero"/></svg>