<svg xmlns="http://www.w3.org/2000/svg" xmlns:xlink="http://www.w3.org/1999/xlink" width="512" zoomAndPan="magnify" viewBox="0 0 384 383.999986" height="512" preserveAspectRatio="xMidYMid meet" version="1.0"><defs><clipPath id="9b7722e36e"><path d="M 56 75 L 328.105469 75 L 328.105469 384 L 56 384 Z M 56 75 " clip-rule="nonzero"/></clipPath></defs><g clip-path="url(#9b7722e36e)"><path fill="#e44d26" d="M 328.066406 75.460938 L 303.285156 353.101562 L 191.878906 383.984375 L 80.785156 353.144531 L 56.03125 75.460938 L 328.0625 75.457031 L 328.070312 75.457031 Z M 328.066406 75.460938 " fill-opacity="1" fill-rule="nonzero"/></g><path fill="#f16529" d="M 192.050781 360.378906 L 282.074219 335.425781 L 303.25 98.171875 L 192.050781 98.167969 Z M 192.050781 360.378906 " fill-opacity="1" fill-rule="nonzero"/><path fill="#ebebeb" d="M 143.871094 166.277344 L 192.050781 166.277344 L 192.050781 132.21875 L 106.652344 132.21875 L 107.46875 141.359375 L 115.839844 235.210938 L 192.050781 235.210938 L 192.050781 201.160156 L 146.984375 201.160156 Z M 143.871094 166.277344 " fill-opacity="1" fill-rule="nonzero"/><path fill="#ebebeb" d="M 151.546875 252.238281 L 117.359375 252.238281 L 122.128906 305.71875 L 191.890625 325.082031 L 192.050781 325.039062 L 192.050781 289.605469 L 191.902344 289.648438 L 153.972656 279.398438 Z M 151.546875 252.238281 " fill-opacity="1" fill-rule="nonzero"/><path fill="#ffffff" d="M 81.339844 0 L 98.648438 0 L 98.648438 17.097656 L 114.480469 17.097656 L 114.480469 0 L 131.789062 0 L 131.789062 51.78125 L 114.480469 51.78125 L 114.480469 34.441406 L 98.648438 34.441406 L 98.648438 51.78125 L 81.339844 51.78125 Z M 81.339844 0 " fill-opacity="1" fill-rule="nonzero"/><path fill="#ffffff" d="M 154.546875 17.171875 L 139.3125 17.171875 L 139.3125 0 L 187.101562 0 L 187.101562 17.171875 L 171.851562 17.171875 L 171.851562 51.78125 L 154.546875 51.78125 Z M 154.546875 17.171875 " fill-opacity="1" fill-rule="nonzero"/><path fill="#ffffff" d="M 194.683594 0 L 212.726562 0 L 223.828125 18.195312 L 234.917969 0 L 252.972656 0 L 252.972656 51.78125 L 235.738281 51.78125 L 235.738281 26.117188 L 223.828125 44.527344 L 223.53125 44.527344 L 211.617188 26.117188 L 211.617188 51.78125 L 194.683594 51.78125 Z M 194.683594 0 " fill-opacity="1" fill-rule="nonzero"/><path fill="#ffffff" d="M 261.589844 0 L 278.894531 0 L 278.894531 34.664062 L 303.242188 34.664062 L 303.242188 51.78125 L 261.589844 51.78125 Z M 261.589844 0 " fill-opacity="1" fill-rule="nonzero"/><path fill="#ffffff" d="M 191.933594 235.210938 L 233.875 235.210938 L 229.917969 279.378906 L 191.933594 289.636719 L 191.933594 325.0625 L 261.75 305.71875 L 262.261719 299.960938 L 270.269531 210.300781 L 271.101562 201.160156 L 191.933594 201.160156 Z M 191.933594 235.210938 " fill-opacity="1" fill-rule="nonzero"/><path fill="#ffffff" d="M 191.933594 166.195312 L 191.933594 166.277344 L 274.191406 166.277344 L 274.875 158.621094 L 276.433594 141.359375 L 277.242188 132.21875 L 191.933594 132.21875 Z M 191.933594 166.195312 " fill-opacity="1" fill-rule="nonzero"/></svg>