<svg xmlns="http://www.w3.org/2000/svg" xmlns:xlink="http://www.w3.org/1999/xlink" width="512" zoomAndPan="magnify" viewBox="0 0 384 383.999986" height="512" preserveAspectRatio="xMidYMid meet" version="1.0"><defs><clipPath id="6a424211b6"><path d="M 15.839844 0 L 368.339844 0 L 368.339844 384 L 15.839844 384 Z M 15.839844 0 " clip-rule="nonzero"/></clipPath></defs><g clip-path="url(#6a424211b6)"><path fill="#2196f3" d="M 366.117188 2.625 C 365.359375 1.785156 364.460938 1.140625 363.425781 0.683594 C 362.394531 0.226562 361.308594 0 360.179688 0 L 24 0 C 23.441406 -0.00390625 22.882812 0.0507812 22.335938 0.167969 C 21.785156 0.28125 21.253906 0.449219 20.742188 0.675781 C 20.226562 0.902344 19.742188 1.175781 19.285156 1.503906 C 18.832031 1.832031 18.414062 2.203125 18.039062 2.617188 C 17.660156 3.035156 17.332031 3.484375 17.046875 3.96875 C 16.765625 4.453125 16.535156 4.960938 16.359375 5.492188 C 16.183594 6.023438 16.066406 6.570312 16.003906 7.128906 C 15.941406 7.683594 15.941406 8.242188 15.996094 8.800781 L 48.011719 328.800781 C 48.089844 329.566406 48.273438 330.308594 48.5625 331.023438 C 48.855469 331.738281 49.238281 332.398438 49.722656 333 C 50.203125 333.605469 50.761719 334.128906 51.394531 334.570312 C 52.027344 335.011719 52.707031 335.355469 53.441406 335.601562 L 197.515625 383.601562 C 198.355469 383.871094 199.214844 384.003906 200.09375 384 C 201.066406 384 202.003906 383.828125 202.910156 383.488281 L 330.980469 335.488281 C 331.683594 335.230469 332.335938 334.878906 332.9375 334.4375 C 333.542969 333.992188 334.070312 333.476562 334.53125 332.886719 C 334.988281 332.292969 335.355469 331.652344 335.636719 330.957031 C 335.914062 330.261719 336.089844 329.542969 336.167969 328.800781 L 368.183594 8.800781 C 368.292969 7.671875 368.167969 6.570312 367.808594 5.492188 C 367.449219 4.417969 366.886719 3.460938 366.117188 2.625 Z M 366.117188 2.625 " fill-opacity="1" fill-rule="nonzero"/></g><path fill="#fafafa" d="M 200.09375 304 C 199.230469 304 198.386719 303.867188 197.566406 303.601562 L 125.527344 279.601562 C 124.859375 279.378906 124.230469 279.074219 123.644531 278.683594 C 123.058594 278.296875 122.53125 277.839844 122.0625 277.3125 C 121.597656 276.785156 121.207031 276.207031 120.890625 275.578125 C 120.578125 274.949219 120.351562 274.289062 120.210938 273.601562 L 112.207031 233.601562 C 112.101562 233.085938 112.046875 232.566406 112.046875 232.039062 C 112.042969 231.515625 112.089844 230.992188 112.191406 230.476562 C 112.289062 229.960938 112.441406 229.460938 112.640625 228.972656 C 112.835938 228.488281 113.082031 228.023438 113.371094 227.585938 C 113.660156 227.148438 113.992188 226.742188 114.363281 226.367188 C 114.730469 225.996094 115.132812 225.660156 115.570312 225.367188 C 116.003906 225.074219 116.464844 224.824219 116.949219 224.621094 C 117.433594 224.417969 117.933594 224.261719 118.449219 224.15625 C 118.964844 224.050781 119.484375 224 120.011719 223.996094 C 120.539062 223.992188 121.058594 224.042969 121.574219 224.140625 C 122.089844 224.242188 122.59375 224.390625 123.078125 224.589844 C 123.566406 224.789062 124.027344 225.03125 124.46875 225.324219 C 124.90625 225.613281 125.3125 225.941406 125.683594 226.3125 C 126.058594 226.683594 126.390625 227.085938 126.6875 227.519531 C 126.980469 227.957031 127.230469 228.417969 127.433594 228.902344 C 127.636719 229.386719 127.789062 229.886719 127.894531 230.398438 L 134.988281 265.839844 L 199.933594 287.519531 L 257.019531 266.128906 L 286.636719 96 L 104.042969 96 C 103.519531 96 102.996094 95.949219 102.480469 95.847656 C 101.964844 95.742188 101.464844 95.59375 100.980469 95.390625 C 100.496094 95.191406 100.035156 94.945312 99.597656 94.652344 C 99.160156 94.359375 98.753906 94.027344 98.382812 93.65625 C 98.011719 93.285156 97.679688 92.882812 97.386719 92.445312 C 97.097656 92.007812 96.847656 91.546875 96.648438 91.0625 C 96.445312 90.574219 96.296875 90.074219 96.191406 89.5625 C 96.089844 89.046875 96.039062 88.523438 96.039062 88 C 96.039062 87.476562 96.089844 86.953125 96.191406 86.4375 C 96.296875 85.925781 96.445312 85.421875 96.648438 84.9375 C 96.847656 84.453125 97.097656 83.992188 97.386719 83.554688 C 97.679688 83.117188 98.011719 82.714844 98.382812 82.34375 C 98.753906 81.972656 99.160156 81.640625 99.597656 81.347656 C 100.035156 81.054688 100.496094 80.808594 100.980469 80.609375 C 101.464844 80.40625 101.964844 80.257812 102.480469 80.152344 C 102.996094 80.050781 103.519531 80 104.042969 80 L 296.144531 80 C 296.730469 80 297.308594 80.0625 297.878906 80.1875 C 298.449219 80.3125 298.996094 80.5 299.527344 80.746094 C 300.058594 80.992188 300.554688 81.292969 301.019531 81.648438 C 301.480469 82.003906 301.902344 82.402344 302.277344 82.851562 C 302.652344 83.296875 302.976562 83.777344 303.246094 84.296875 C 303.519531 84.8125 303.730469 85.355469 303.882812 85.917969 C 304.03125 86.480469 304.121094 87.054688 304.148438 87.636719 C 304.175781 88.222656 304.136719 88.800781 304.039062 89.375 L 272.019531 273.375 C 271.902344 274.0625 271.695312 274.722656 271.402344 275.355469 C 271.109375 275.984375 270.742188 276.570312 270.296875 277.105469 C 269.851562 277.640625 269.34375 278.113281 268.777344 278.515625 C 268.207031 278.917969 267.597656 279.242188 266.945312 279.488281 L 202.910156 303.488281 C 202.003906 303.828125 201.066406 304 200.09375 304 Z M 200.09375 304 " fill-opacity="1" fill-rule="nonzero"/><path fill="#fafafa" d="M 280.136719 176 L 112.046875 176 C 111.523438 176 111 175.949219 110.484375 175.847656 C 109.96875 175.742188 109.46875 175.59375 108.984375 175.390625 C 108.5 175.191406 108.039062 174.945312 107.601562 174.652344 C 107.164062 174.359375 106.757812 174.027344 106.386719 173.65625 C 106.015625 173.285156 105.683594 172.882812 105.390625 172.445312 C 105.101562 172.007812 104.855469 171.546875 104.652344 171.0625 C 104.453125 170.574219 104.300781 170.074219 104.195312 169.5625 C 104.09375 169.046875 104.042969 168.523438 104.042969 168 C 104.042969 167.476562 104.09375 166.953125 104.195312 166.4375 C 104.300781 165.925781 104.453125 165.421875 104.652344 164.9375 C 104.855469 164.453125 105.101562 163.992188 105.390625 163.554688 C 105.683594 163.117188 106.015625 162.714844 106.386719 162.34375 C 106.757812 161.972656 107.164062 161.640625 107.601562 161.347656 C 108.039062 161.054688 108.5 160.808594 108.984375 160.609375 C 109.46875 160.40625 109.96875 160.257812 110.484375 160.152344 C 111 160.050781 111.523438 160 112.046875 160 L 280.136719 160 C 280.664062 160 281.183594 160.050781 281.699219 160.152344 C 282.214844 160.257812 282.714844 160.40625 283.199219 160.609375 C 283.683594 160.808594 284.148438 161.054688 284.582031 161.347656 C 285.019531 161.640625 285.425781 161.972656 285.796875 162.34375 C 286.167969 162.714844 286.5 163.117188 286.792969 163.554688 C 287.085938 163.992188 287.332031 164.453125 287.53125 164.9375 C 287.734375 165.421875 287.882812 165.925781 287.988281 166.4375 C 288.089844 166.953125 288.140625 167.476562 288.140625 168 C 288.140625 168.523438 288.089844 169.046875 287.988281 169.5625 C 287.882812 170.074219 287.734375 170.574219 287.53125 171.0625 C 287.332031 171.546875 287.085938 172.007812 286.792969 172.445312 C 286.5 172.882812 286.167969 173.285156 285.796875 173.65625 C 285.425781 174.027344 285.019531 174.359375 284.582031 174.652344 C 284.148438 174.945312 283.683594 175.191406 283.199219 175.390625 C 282.714844 175.59375 282.214844 175.742188 281.699219 175.847656 C 281.183594 175.949219 280.664062 176 280.136719 176 Z M 280.136719 176 " fill-opacity="1" fill-rule="nonzero"/></svg>