<svg xmlns="http://www.w3.org/2000/svg" xmlns:xlink="http://www.w3.org/1999/xlink" width="512" zoomAndPan="magnify" viewBox="0 0 384 383.999986" height="512" preserveAspectRatio="xMidYMid meet" version="1.0"><defs><clipPath id="ebfb1055ec"><path d="M 4 3.417969 L 383.667969 3.417969 L 383.667969 383 L 4 383 Z M 4 3.417969 " clip-rule="nonzero"/></clipPath><clipPath id="fdb9cc9855"><path d="M 4 3.417969 L 195 3.417969 L 195 383 L 4 383 Z M 4 3.417969 " clip-rule="nonzero"/></clipPath></defs><g clip-path="url(#ebfb1055ec)"><path fill="#ffc44d" d="M 17.566406 2.535156 C 13.761719 2.535156 10.140625 4.167969 7.625 7.019531 C 5.105469 9.875 3.933594 13.667969 4.40625 17.445312 L 39.777344 300.421875 C 40.328125 304.824219 43.042969 308.65625 47.007812 310.640625 L 188.496094 381.382812 C 192.230469 383.25 196.625 383.25 200.359375 381.382812 L 341.847656 310.640625 C 345.816406 308.65625 348.527344 304.824219 349.078125 300.421875 L 384.449219 17.445312 C 384.921875 13.667969 383.75 9.875 381.234375 7.019531 C 378.714844 4.167969 375.09375 2.535156 371.289062 2.535156 Z M 17.566406 2.535156 " fill-opacity="1" fill-rule="nonzero"/></g><g clip-path="url(#fdb9cc9855)"><path fill="#e5b045" d="M 194.429688 2.535156 L 194.429688 382.785156 C 192.394531 382.785156 190.363281 382.316406 188.496094 381.382812 L 47.007812 310.640625 C 43.042969 308.65625 40.328125 304.824219 39.777344 300.421875 L 4.40625 17.445312 C 3.933594 13.667969 5.105469 9.875 7.625 7.019531 C 10.140625 4.167969 13.761719 2.535156 17.566406 2.535156 Z M 194.429688 2.535156 " fill-opacity="1" fill-rule="evenodd"/></g><path fill="#cfd8dc" d="M 167.902344 55.59375 C 175.226562 55.59375 181.164062 61.53125 181.164062 68.859375 L 181.164062 298.777344 C 181.164062 303.503906 178.648438 307.875 174.558594 310.25 C 170.46875 312.621094 165.425781 312.636719 161.320312 310.292969 L 99.417969 274.921875 C 93.058594 271.285156 90.847656 263.183594 94.484375 256.824219 C 98.117188 250.464844 106.222656 248.253906 112.582031 251.886719 L 154.636719 275.917969 L 154.636719 68.859375 C 154.636719 61.53125 160.574219 55.59375 167.902344 55.59375 Z M 167.902344 55.59375 " fill-opacity="1" fill-rule="evenodd"/><path fill="#eceff1" d="M 207.695312 68.859375 C 207.695312 61.53125 213.636719 55.59375 220.960938 55.59375 L 309.390625 55.59375 C 316.71875 55.59375 322.65625 61.53125 322.65625 68.859375 C 322.65625 76.183594 316.71875 82.121094 309.390625 82.121094 L 234.226562 82.121094 L 234.226562 167.28125 L 297.671875 153.183594 C 301.804688 152.261719 306.128906 153.375 309.308594 156.171875 C 312.488281 158.96875 314.140625 163.113281 313.757812 167.332031 L 304.914062 264.605469 C 304.5 269.179688 301.746094 273.214844 297.636719 275.269531 L 226.894531 310.640625 C 220.339844 313.917969 212.371094 311.261719 209.09375 304.707031 C 205.820312 298.15625 208.476562 290.1875 215.027344 286.914062 L 279.164062 254.84375 L 285.695312 183.019531 L 223.839844 196.765625 C 219.910156 197.636719 215.796875 196.683594 212.660156 194.164062 C 209.523438 191.644531 207.695312 187.839844 207.695312 183.816406 Z M 207.695312 68.859375 " fill-opacity="1" fill-rule="evenodd"/></svg>