<svg xmlns="http://www.w3.org/2000/svg" xmlns:xlink="http://www.w3.org/1999/xlink" width="512" zoomAndPan="magnify" viewBox="0 0 384 383.999986" height="512" preserveAspectRatio="xMidYMid meet" version="1.0"><path fill="#563d7c" d="M 0 334.484375 C 0 361.828125 22.167969 384 49.511719 384 L 334.484375 384 C 361.828125 384 384 361.828125 384 334.484375 L 384 49.515625 C 384 22.164062 361.828125 0 334.484375 0 L 49.511719 0 C 22.164062 0 0 22.167969 0 49.511719 Z M 0 334.484375 " fill-opacity="1" fill-rule="nonzero"/><path fill="#ffffff" d="M 159.238281 169.859375 L 159.238281 115.476562 L 207.105469 115.476562 C 211.664062 115.476562 216.058594 115.855469 220.289062 116.617188 C 224.519531 117.375 228.269531 118.734375 231.523438 120.6875 C 234.78125 122.640625 237.390625 125.355469 239.339844 128.828125 C 241.289062 132.300781 242.265625 136.753906 242.265625 142.179688 C 242.265625 151.949219 239.339844 159 233.476562 163.351562 C 227.625 167.683594 220.125 169.859375 211.003906 169.859375 Z M 108.113281 75.75 L 108.113281 308.25 L 220.785156 308.25 C 231.195312 308.25 241.351562 306.945312 251.21875 304.335938 C 261.105469 301.738281 269.894531 297.71875 277.605469 292.289062 C 285.316406 286.859375 291.433594 279.871094 295.996094 271.289062 C 300.554688 262.710938 302.835938 252.570312 302.835938 240.839844 C 302.835938 226.304688 299.308594 213.871094 292.261719 203.566406 C 285.195312 193.246094 274.515625 186.03125 260.175781 181.90625 C 270.601562 176.910156 278.476562 170.503906 283.785156 162.691406 C 289.109375 154.875 291.765625 145.109375 291.765625 133.386719 C 291.765625 122.53125 289.980469 113.414062 286.394531 106.035156 C 282.808594 98.652344 277.769531 92.738281 271.261719 88.285156 C 264.734375 83.835938 256.921875 80.632812 247.816406 78.679688 C 238.695312 76.726562 228.601562 75.75 217.53125 75.75 Z M 159.238281 268.53125 L 159.238281 204.703125 L 214.921875 204.703125 C 225.988281 204.703125 234.886719 207.253906 241.621094 212.355469 C 248.355469 217.453125 251.714844 225.976562 251.714844 237.914062 C 251.714844 243.988281 250.679688 248.984375 248.625 252.898438 C 246.554688 256.800781 243.796875 259.890625 240.316406 262.171875 C 236.851562 264.449219 232.828125 266.085938 228.269531 267.058594 C 223.710938 268.035156 218.941406 268.53125 213.945312 268.53125 Z M 159.238281 268.53125 " fill-opacity="1" fill-rule="nonzero"/></svg>