<svg xmlns="http://www.w3.org/2000/svg" xmlns:xlink="http://www.w3.org/1999/xlink" width="512" zoomAndPan="magnify" viewBox="0 0 384 383.999986" height="512" preserveAspectRatio="xMidYMid meet" version="1.0"><path fill="#00d8ff" d="M 315.464844 132.050781 C 311.5 130.679688 307.382812 129.386719 303.132812 128.160156 C 303.835938 125.3125 304.480469 122.503906 305.046875 119.742188 C 314.375 74.398438 308.28125 37.867188 287.429688 25.839844 C 267.429688 14.308594 234.738281 26.332031 201.714844 55.078125 C 198.542969 57.84375 195.351562 60.769531 192.179688 63.835938 C 190.054688 61.808594 187.941406 59.847656 185.832031 57.972656 C 151.222656 27.234375 116.535156 14.28125 95.707031 26.34375 C 75.734375 37.910156 69.820312 72.25 78.226562 115.222656 C 79.039062 119.375 79.984375 123.613281 81.058594 127.925781 C 76.148438 129.320312 71.410156 130.804688 66.875 132.386719 C 26.304688 146.535156 0.394531 168.710938 0.394531 191.71875 C 0.394531 215.46875 28.207031 239.308594 70.46875 253.757812 C 73.800781 254.898438 77.261719 255.976562 80.828125 256.992188 C 79.671875 261.648438 78.664062 266.21875 77.820312 270.679688 C 69.804688 312.910156 76.0625 346.4375 95.984375 357.921875 C 116.554688 369.796875 151.089844 357.59375 184.710938 328.199219 C 187.375 325.875 190.039062 323.40625 192.703125 320.832031 C 196.175781 324.15625 199.632812 327.3125 203.0625 330.28125 C 235.636719 358.3125 267.804688 369.632812 287.699219 358.117188 C 308.25 346.210938 314.941406 310.183594 306.261719 266.367188 C 305.601562 263.011719 304.824219 259.597656 303.96875 256.125 C 306.394531 255.40625 308.777344 254.65625 311.09375 253.894531 C 355.03125 239.324219 383.605469 215.796875 383.605469 191.71875 C 383.605469 168.628906 356.855469 146.304688 315.464844 132.050781 Z M 305.945312 238.347656 C 303.851562 239.039062 301.695312 239.710938 299.507812 240.355469 C 294.660156 225.007812 288.117188 208.667969 280.09375 191.792969 C 287.742188 175.320312 294.03125 159.199219 298.746094 143.941406 C 302.667969 145.074219 306.46875 146.269531 310.136719 147.535156 C 345.601562 159.746094 367.230469 177.808594 367.230469 191.71875 C 367.230469 206.527344 343.878906 225.769531 305.945312 238.347656 Z M 290.199219 269.542969 C 294.046875 288.917969 294.585938 306.441406 292.039062 320.140625 C 289.765625 332.449219 285.167969 340.65625 279.496094 343.9375 C 267.414062 350.929688 241.59375 341.839844 213.75 317.867188 C 210.546875 315.109375 207.328125 312.175781 204.109375 309.074219 C 214.902344 297.261719 225.695312 283.527344 236.234375 268.269531 C 254.75 266.636719 272.25 263.941406 288.132812 260.273438 C 288.910156 263.433594 289.601562 266.515625 290.199219 269.542969 Z M 131.046875 342.722656 C 119.246094 346.902344 109.847656 347.019531 104.167969 343.742188 C 92.078125 336.761719 87.054688 309.839844 93.910156 273.734375 C 94.695312 269.601562 95.628906 265.347656 96.707031 261.007812 C 112.402344 264.480469 129.777344 266.980469 148.347656 268.480469 C 158.953125 283.410156 170.0625 297.125 181.242188 309.136719 C 178.804688 311.5 176.363281 313.746094 173.9375 315.859375 C 159.074219 328.871094 144.175781 338.097656 131.046875 342.722656 Z M 75.769531 238.257812 C 57.082031 231.867188 41.648438 223.570312 31.074219 214.496094 C 21.566406 206.363281 16.769531 198.277344 16.769531 191.71875 C 16.769531 177.761719 37.570312 159.949219 72.269531 147.851562 C 76.480469 146.378906 80.886719 144.996094 85.460938 143.699219 C 90.257812 159.300781 96.546875 175.621094 104.136719 192.109375 C 96.449219 208.847656 90.066406 225.425781 85.226562 241.226562 C 81.964844 240.28125 78.808594 239.292969 75.769531 238.257812 Z M 94.296875 112.078125 C 87.09375 75.261719 91.878906 47.484375 103.914062 40.515625 C 116.734375 33.089844 145.082031 43.675781 174.957031 70.21875 C 176.871094 71.914062 178.789062 73.6875 180.71875 75.527344 C 169.582031 87.488281 158.578125 101.101562 148.066406 115.941406 C 130.046875 117.613281 112.792969 120.292969 96.929688 123.890625 C 95.933594 119.878906 95.050781 115.933594 94.296875 112.078125 Z M 259.585938 152.910156 C 255.800781 146.359375 251.910156 139.960938 247.941406 133.738281 C 260.171875 135.285156 271.878906 137.339844 282.878906 139.851562 C 279.585938 150.4375 275.46875 161.507812 270.621094 172.863281 C 267.148438 166.257812 263.464844 159.601562 259.585938 152.910156 Z M 192.179688 87.230469 C 199.742188 95.414062 207.300781 104.550781 214.738281 114.464844 C 207.238281 114.109375 199.652344 113.925781 192 113.925781 C 184.425781 113.925781 176.898438 114.105469 169.441406 114.453125 C 176.882812 104.632812 184.515625 95.507812 192.179688 87.230469 Z M 124.34375 153.023438 C 120.554688 159.59375 116.945312 166.214844 113.523438 172.851562 C 108.757812 161.539062 104.679688 150.417969 101.347656 139.675781 C 112.28125 137.230469 123.941406 135.226562 136.089844 133.710938 C 132.066406 139.992188 128.140625 146.433594 124.34375 153.023438 Z M 136.441406 250.882812 C 123.886719 249.492188 112.054688 247.589844 101.121094 245.207031 C 104.507812 234.277344 108.675781 222.925781 113.542969 211.363281 C 116.972656 218 120.597656 224.617188 124.40625 231.207031 L 124.410156 231.207031 C 128.289062 237.914062 132.3125 244.472656 136.441406 250.882812 Z M 192.628906 297.351562 C 184.875 288.980469 177.136719 279.710938 169.578125 269.75 C 176.914062 270.035156 184.398438 270.1875 192 270.1875 C 199.816406 270.1875 207.539062 270.007812 215.128906 269.675781 C 207.675781 279.816406 200.128906 289.097656 192.628906 297.351562 Z M 270.769531 210.78125 C 275.890625 222.460938 280.214844 233.753906 283.644531 244.503906 C 272.535156 247.035156 260.53125 249.070312 247.898438 250.597656 C 251.878906 244.292969 255.800781 237.78125 259.664062 231.085938 C 263.570312 224.316406 267.265625 217.535156 270.769531 210.78125 Z M 245.472656 222.910156 C 239.484375 233.304688 233.332031 243.214844 227.089844 252.574219 C 215.726562 253.382812 203.976562 253.804688 192 253.804688 C 180.070312 253.804688 168.46875 253.445312 157.300781 252.710938 C 150.804688 243.230469 144.527344 233.289062 138.574219 223 C 132.640625 212.742188 127.175781 202.394531 122.226562 192.109375 C 127.175781 181.804688 132.625 171.441406 138.527344 161.203125 L 138.523438 161.207031 C 144.441406 150.941406 150.671875 141.039062 157.109375 131.613281 C 168.5 130.75 180.191406 130.300781 192 130.300781 C 203.871094 130.300781 215.5625 130.757812 226.953125 131.625 C 233.300781 140.984375 239.484375 150.847656 245.425781 161.117188 C 251.429688 171.503906 256.953125 181.789062 261.9375 191.882812 C 256.96875 202.140625 251.460938 212.53125 245.472656 222.910156 Z M 279.242188 40.023438 C 292.085938 47.429688 297.070312 77.28125 289.003906 116.433594 C 288.492188 118.933594 287.910156 121.476562 287.28125 124.054688 C 271.382812 120.382812 254.125 117.65625 236.054688 115.957031 C 225.519531 100.957031 214.605469 87.320312 203.648438 75.515625 C 206.597656 72.679688 209.546875 69.976562 212.464844 67.429688 C 240.757812 42.800781 267.207031 33.074219 279.242188 40.023438 Z M 192 157.480469 C 210.894531 157.480469 226.222656 172.800781 226.222656 191.714844 C 226.222656 210.613281 210.894531 225.945312 192 225.945312 C 173.109375 225.945312 157.78125 210.613281 157.78125 191.714844 C 157.78125 172.800781 173.109375 157.480469 192 157.480469 Z M 192 157.480469 " fill-opacity="1" fill-rule="nonzero"/></svg>